<svg id="Layer_1" data-name="Layer 1" xmlns="http://www.w3.org/2000/svg" viewBox="0 0 517.37 148.69"><defs><style>.cls-1{fill:#1d1d1b;}</style></defs><title>art_and_science_v3_text</title><path class="cls-1" d="M27.73,1h8.69l6.13,51.82H34.79L32.33,23.43c-.48-5.43-.88-11-1.35-16.52h-.32c-2.73,5.59-5.21,10.82-7.91,16.39L8.13,52.77H0ZM14.16,31.76h23L36,37.46H12.78Z"/><path class="cls-1" d="M55.7,32.59C55.7,15.84,66.78,0,82.68,0A14.65,14.65,0,0,1,95.74,7.81l-5.2,3.88c-2-3.3-4.57-5.27-8.23-5.27-11.43,0-19,13.27-19,25.57C63.27,41,67,47.31,75.85,47.31c3.78,0,7.21-1.72,10.42-4.42l3.29,4.73a22.8,22.8,0,0,1-15.12,6.1C62.54,53.72,55.7,45.29,55.7,32.59Z"/><path class="cls-1" d="M121.36,7.24H104.59L105.81,1h41.06l-1.29,6.29H128.81l-9,45.53h-7.45Z"/><path class="cls-1" d="M148.41,46.54H161l8-39.36H156.17L157.48,1h33l-1.31,6.23H176.32l-7.91,39.36h12.84l-1.32,6.23H147Z"/><path class="cls-1" d="M201.17,1h7.63L211,28.8c.42,5.58.83,11.36,1.16,17h.31c2.51-5.38,5.79-12.24,8.16-16.94L234.52,1h8.07L215.07,52.77h-8.92Z"/><path class="cls-1" d="M265.14,1h8.69L280,52.77H272.2l-2.46-29.34c-.49-5.43-.89-11-1.35-16.52h-.32c-2.73,5.59-5.21,10.82-7.91,16.39L245.54,52.77h-8.13ZM251.57,31.76h23l-1.12,5.7H250.19Z"/><path class="cls-1" d="M311.29,7.24H294.51L295.74,1h41.05l-1.28,6.29H318.74l-9,45.53h-7.45Z"/><path class="cls-1" d="M349.31,1h32.41L380.5,7.18H355.45l-3,15.32h20.9l-1.22,6.23H351.2l-3.63,17.81h25.75l-1.22,6.23H339Z"/><path class="cls-1" d="M21,130,10.48,95.83h7.67L22.5,111.2c1.1,4.15,2.4,9.09,3.25,12.82h.31c2.1-3.6,5.23-8.59,8-12.82L44.4,95.83h7.82l-24,35-3.41,16.88H17.41Z"/><path class="cls-1" d="M52.79,128.06c0-16.85,9.77-33.1,25.11-33.1,10.62,0,16.92,8.11,16.92,20.63,0,16.85-9.69,33.1-25,33.1C59.17,148.69,52.79,140.52,52.79,128.06Zm34.46-13c0-8.58-3.23-13.72-10-13.72-10.41,0-16.85,13.74-16.85,27.11,0,8.58,3.25,13.78,10.13,13.78C80.9,142.27,87.25,128.53,87.25,115.1Z"/><path class="cls-1" d="M102.08,132.87a35.89,35.89,0,0,1,.82-7.64l5.83-29.32h7.45l-6,29.74a30.26,30.26,0,0,0-.89,6.46c0,6.53,3,10.16,8.93,10.16,5.66,0,10.06-3.66,12.28-14.83l6.24-31.53H144l-6.4,32.16c-3.06,15.4-10.35,20.62-20.33,20.62S102.08,142.52,102.08,132.87Z"/><path class="cls-1" d="M157.45,95.91h14.47c9.83,0,16.79,3.45,16.79,12.69,0,11.82-10.18,17.94-21.51,17.94h-8.53l-4.19,21.2H147Zm9.25,24.71c9.25,0,14.53-4.42,14.53-11.32,0-5.34-3.69-7.47-10.75-7.47h-6.87L160,120.62Zm5.78,1.68L183,147.74H174.7l-8.58-22.39Z"/><path class="cls-1" d="M245.62,127.55c0-16.75,11.09-32.59,27-32.59a14.65,14.65,0,0,1,13.06,7.81l-5.2,3.88c-2-3.3-4.57-5.27-8.23-5.27-11.43,0-19.05,13.27-19.05,25.58,0,9,3.75,15.31,12.58,15.31,3.79,0,7.22-1.71,10.43-4.41l3.29,4.72a22.8,22.8,0,0,1-15.12,6.11C252.47,148.69,245.62,140.26,245.62,127.55Z"/><path class="cls-1" d="M312.62,95.91h8.69l6.13,51.83h-7.76l-2.46-29.35c-.48-5.42-.88-11-1.35-16.52h-.32c-2.73,5.6-5.21,10.83-7.91,16.39L293,147.74h-8.14Zm-13.57,30.81h23l-1.12,5.7H297.67Z"/><path class="cls-1" d="M345.88,95.91h8.48L357,118.16l.42,7.72h.31l3.37-7.6L373.2,95.91h8.4l-10.28,51.83h-6.71l5.58-27.62c.85-4.26,3.12-11.84,4.4-16.27h-.32c-.71,1.42-4.12,8.51-5.41,10.9l-10,19h-5.42l-2.34-18.41c-.19-1.35-.77-10-1-11.45h-.32c-.52,5.07-1.24,12.07-1.93,15.4l-5.8,28.49h-6.52Z"/><path class="cls-1" d="M396.79,95.91h32.42L428,102.14H402.93l-3,15.33h20.9l-1.22,6.23h-20.9l-3.63,17.81H420.8l-1.22,6.23H386.44Z"/><path class="cls-1" d="M442.34,95.91h14.47c9.83,0,16.79,3.45,16.79,12.69,0,11.82-10.18,17.94-21.51,17.94h-8.53l-4.18,21.2h-7.45Zm9.25,24.71c9.25,0,14.53-4.42,14.53-11.32,0-5.34-3.69-7.47-10.75-7.47H448.5l-3.65,18.79Zm5.78,1.68,10.5,25.44h-8.28L451,125.35Z"/><path class="cls-1" d="M502.55,95.91h8.69l6.13,51.83h-7.76l-2.47-29.35c-.48-5.42-.88-11-1.34-16.52h-.32c-2.73,5.6-5.21,10.83-7.91,16.39L483,147.74h-8.13ZM489,126.72h23l-1.12,5.7H487.6Z"/></svg>