<svg id="Layer_1" data-name="Layer 1" xmlns="http://www.w3.org/2000/svg" viewBox="0 0 648.84 111.54"><defs><style>.cls-1{fill:#1d1d1b;}</style></defs><title>art_and_science_about_text</title><path class="cls-1" d="M3.54.24H5.33L4.36,5,4,6.34h.08a5.87,5.87,0,0,1,4-2,2.18,2.18,0,0,1,2.45,2.39,8,8,0,0,1-.17,1.53L9.22,14H7.42L8.55,8.41a6.49,6.49,0,0,0,.16-1.24A1.2,1.2,0,0,0,7.35,5.85C6.2,5.85,5,6.62,3.79,8L2.58,14H.78Z"/><path class="cls-1" d="M15.9,11.79A5.52,5.52,0,0,1,16,10.71L17.14,6H13.75l.3-1.43h5.18l-1.41,6.33a2.52,2.52,0,0,0-.08.58,1.21,1.21,0,0,0,1.37,1.33,4.29,4.29,0,0,0,1.73-.47l.4,1.36a6.1,6.1,0,0,1-2.66.61A2.39,2.39,0,0,1,15.9,11.79ZM17.26,1.47A1.51,1.51,0,0,1,18.76,0,1.13,1.13,0,0,1,20,1.17a1.48,1.48,0,0,1-1.51,1.47A1.15,1.15,0,0,1,17.26,1.47Z"/><path class="cls-1" d="M38.21,11.51a5.66,5.66,0,0,1,.15-1.24L39.24,6H36.55l.27-1.33,2.79-.1.86-3H42l-.62,3h4.5L45.55,6H41l-.9,4.31a3.41,3.41,0,0,0-.09.83,1.49,1.49,0,0,0,1.65,1.67,4.81,4.81,0,0,0,2.38-.69l.56,1.29a6.63,6.63,0,0,1-3.43.9C39.12,14.27,38.21,13.16,38.21,11.51Z"/><path class="cls-1" d="M50.23.24H52l-1,4.8-.34,1.3h.07a5.89,5.89,0,0,1,4-2,2.18,2.18,0,0,1,2.45,2.39,8,8,0,0,1-.17,1.53L55.91,14h-1.8l1.13-5.62a5.83,5.83,0,0,0,.17-1.24A1.21,1.21,0,0,0,54,5.85c-1.15,0-2.37.77-3.56,2.13l-1.21,6h-1.8Z"/><path class="cls-1" d="M59.69,10.13a5.61,5.61,0,0,1,5.45-5.84A3.43,3.43,0,0,1,68.82,8a6.45,6.45,0,0,1-.27,1.78H61.06l.22-1.31h6.41L67,8.76a3,3,0,0,0,.12-.85A2,2,0,0,0,65.06,5.7c-1.68,0-3.58,1.67-3.58,4.34a2.53,2.53,0,0,0,2.68,2.82,5.2,5.2,0,0,0,3.15-1.17l.64,1.2a6.88,6.88,0,0,1-4.16,1.38A3.78,3.78,0,0,1,59.69,10.13Z"/><path class="cls-1" d="M73.87,4.51l1.48,0L75,7.2h.08c1.06-1.64,2.57-2.91,4.18-2.91a3.32,3.32,0,0,1,1.9.47l-.69,1.55a2.86,2.86,0,0,0-1.55-.39c-1.41,0-2.9,1.35-4.14,3.38l-1,4.73H72Z"/><path class="cls-1" d="M83,10.13a5.61,5.61,0,0,1,5.44-5.84A3.44,3.44,0,0,1,92.17,8a6,6,0,0,1-.28,1.78H84.4l.22-1.31H91l-.66.32a3.42,3.42,0,0,0,.12-.85A2,2,0,0,0,88.4,5.7c-1.67,0-3.58,1.67-3.58,4.34a2.53,2.53,0,0,0,2.69,2.82,5.18,5.18,0,0,0,3.14-1.17l.65,1.2a6.89,6.89,0,0,1-4.17,1.38A3.77,3.77,0,0,1,83,10.13Z"/><path class="cls-1" d="M109.29,11.79a5.52,5.52,0,0,1,.14-1.08L110.53,6h-3.39l.3-1.43h5.18l-1.41,6.33a2.52,2.52,0,0,0-.08.58,1.21,1.21,0,0,0,1.37,1.33,4.29,4.29,0,0,0,1.73-.47l.4,1.36a6.1,6.1,0,0,1-2.66.61A2.39,2.39,0,0,1,109.29,11.79Zm1.36-10.32A1.51,1.51,0,0,1,112.15,0a1.13,1.13,0,0,1,1.27,1.17,1.48,1.48,0,0,1-1.51,1.47A1.15,1.15,0,0,1,110.65,1.47Z"/><path class="cls-1" d="M119.92,11.51a5.7,5.7,0,0,1,.16-1.24L121,6h-2.69l.26-1.33,2.8-.1.86-3h1.48l-.62,3h4.51L127.27,6h-4.53l-.9,4.31a3.49,3.49,0,0,0-.1.83,1.5,1.5,0,0,0,1.66,1.67,4.75,4.75,0,0,0,2.37-.69l.57,1.29a6.66,6.66,0,0,1-3.44.9C120.84,14.27,119.92,13.16,119.92,11.51Z"/><path class="cls-1" d="M132.78,6.05a3.75,3.75,0,0,0,2.91-2.76l.08-1.79.73,1.56a2.27,2.27,0,0,1-1.37.54c-.64,0-1.11-.48-1.11-1.3A1.8,1.8,0,0,1,135.78.45c.92,0,1.58.62,1.58,1.88,0,2.22-1.69,4.06-4.34,4.74Z"/><path class="cls-1" d="M141.25,12.52l1-1.13a4.71,4.71,0,0,0,3.53,1.5c1.22,0,2.08-.42,2.08-1.32s-.8-1.15-2.34-1.65c-2-.66-2.88-1.47-2.88-2.83,0-1.87,1.69-2.8,3.68-2.8a5.55,5.55,0,0,1,4,1.55l-1,1.1a4.87,4.87,0,0,0-3.17-1.27c-1.11,0-1.79.45-1.79,1.2s.74,1.14,2.25,1.66c1.76.59,3,1.25,3,2.8,0,2.08-1.81,2.94-4.09,2.94A5.82,5.82,0,0,1,141.25,12.52Z"/><path class="cls-1" d="M164.6,12.52l1-1.13a4.7,4.7,0,0,0,3.53,1.5c1.21,0,2.08-.42,2.08-1.32s-.8-1.15-2.34-1.65c-2-.66-2.88-1.47-2.88-2.83,0-1.87,1.69-2.8,3.68-2.8a5.56,5.56,0,0,1,4,1.55l-1,1.1a4.89,4.89,0,0,0-3.18-1.27c-1.11,0-1.78.45-1.78,1.2S168.46,8,170,8.53c1.76.59,3,1.25,3,2.8,0,2.08-1.81,2.94-4.1,2.94A5.82,5.82,0,0,1,164.6,12.52Z"/><path class="cls-1" d="M176.21,10.62c0-3.42,2.35-6.33,5.19-6.33a3.15,3.15,0,0,1,2.82,1.38h.08l.4-1.14h1.46L184.25,14h-1.47l.11-1.41h-.08a4.9,4.9,0,0,1-3.39,1.65C177.48,14.27,176.21,13,176.21,10.62ZM183,11l.84-4a2.58,2.58,0,0,0-2.21-1.27c-2,0-3.61,2.12-3.61,4.57,0,1.65.78,2.41,2,2.41A4.14,4.14,0,0,0,183,11Z"/><path class="cls-1" d="M187.88,10.62c0-3.42,2.35-6.33,5.2-6.33a3.12,3.12,0,0,1,2.76,1.33h.06l.3-1.84.71-3.54h1.8L195.92,14h-1.47l.11-1.41h-.08a4.88,4.88,0,0,1-3.39,1.65C189.15,14.27,187.88,13,187.88,10.62Zm6.84.4.82-4a2.55,2.55,0,0,0-2.2-1.27c-2,0-3.6,2.12-3.6,4.57,0,1.65.77,2.41,2,2.41A4.18,4.18,0,0,0,194.72,11Z"/><path class="cls-1" d="M202.68,11.79a5.52,5.52,0,0,1,.14-1.08L203.92,6h-3.39l.3-1.43H206l-1.41,6.33a2.07,2.07,0,0,0-.08.58,1.21,1.21,0,0,0,1.37,1.33,4.29,4.29,0,0,0,1.73-.47l.4,1.36a6.13,6.13,0,0,1-2.66.61A2.38,2.38,0,0,1,202.68,11.79ZM204,1.47A1.51,1.51,0,0,1,205.54,0a1.13,1.13,0,0,1,1.27,1.17,1.49,1.49,0,0,1-1.52,1.47A1.14,1.14,0,0,1,204,1.47Z"/><path class="cls-1" d="M211.45,10.13a5.61,5.61,0,0,1,5.44-5.84A3.44,3.44,0,0,1,220.58,8a6,6,0,0,1-.28,1.78h-7.48L213,8.44h6.41l-.66.32a3.42,3.42,0,0,0,.12-.85,2,2,0,0,0-2.09-2.21c-1.68,0-3.59,1.67-3.59,4.34a2.53,2.53,0,0,0,2.69,2.82,5.18,5.18,0,0,0,3.14-1.17l.65,1.2a6.88,6.88,0,0,1-4.16,1.38A3.78,3.78,0,0,1,211.45,10.13Z"/><path class="cls-1" d="M223.79,17A4.15,4.15,0,0,0,227,13.86l.25-1.38.54,1.1a1.57,1.57,0,0,1-1.1.44,1.25,1.25,0,0,1-1.26-1.35,1.85,1.85,0,0,1,1.87-1.84c.88,0,1.45.69,1.45,1.89,0,2.61-2,4.61-4.76,5.27Z"/><path class="cls-1" d="M246.25,10.62c0-3.42,2.35-6.33,5.19-6.33a3.18,3.18,0,0,1,2.83,1.38h.07l.4-1.14h1.46L254.29,14h-1.47l.11-1.41h-.08a4.9,4.9,0,0,1-3.39,1.65C247.52,14.27,246.25,13,246.25,10.62Zm6.83.4.84-4a2.58,2.58,0,0,0-2.21-1.27c-2,0-3.6,2.12-3.6,4.57,0,1.65.77,2.41,2,2.41A4.14,4.14,0,0,0,253.08,11Z"/><path class="cls-1" d="M259.48,4.53H261l-.22,1.85h.08a6.18,6.18,0,0,1,4.12-2.09,2.18,2.18,0,0,1,2.45,2.39,8,8,0,0,1-.18,1.53L266,14h-1.8l1.13-5.62a6.55,6.55,0,0,0,.17-1.24,1.21,1.21,0,0,0-1.37-1.32c-1.15,0-2.38.77-3.56,2.13l-1.21,6h-1.8Z"/><path class="cls-1" d="M269.82,10.13a5.61,5.61,0,0,1,5.44-5.84A3.44,3.44,0,0,1,279,8a6,6,0,0,1-.28,1.78h-7.49l.22-1.31h6.42l-.66.32a3.42,3.42,0,0,0,.12-.85,2,2,0,0,0-2.1-2.21c-1.67,0-3.58,1.67-3.58,4.34a2.53,2.53,0,0,0,2.69,2.82,5.18,5.18,0,0,0,3.14-1.17l.65,1.2a6.88,6.88,0,0,1-4.16,1.38A3.78,3.78,0,0,1,269.82,10.13Z"/><path class="cls-1" d="M283.35,11.51a5.7,5.7,0,0,1,.16-1.24L284.39,6H281.7L282,4.63l2.8-.1.86-3h1.49l-.63,3H291L290.7,6h-4.53l-.9,4.31a3.41,3.41,0,0,0-.09.83,1.49,1.49,0,0,0,1.65,1.67,4.75,4.75,0,0,0,2.37-.69l.57,1.29a6.64,6.64,0,0,1-3.44.9C284.27,14.27,283.35,13.16,283.35,11.51Z"/><path class="cls-1" d="M293.17,10.13a5.6,5.6,0,0,1,5.44-5.84A3.43,3.43,0,0,1,302.29,8,6.45,6.45,0,0,1,302,9.75h-7.49l.22-1.31h6.42l-.66.32a3.41,3.41,0,0,0,.11-.85,2,2,0,0,0-2.09-2.21C296.86,5.7,295,7.37,295,10a2.53,2.53,0,0,0,2.69,2.82,5.18,5.18,0,0,0,3.14-1.17l.65,1.2a6.91,6.91,0,0,1-4.17,1.38A3.77,3.77,0,0,1,293.17,10.13Z"/><path class="cls-1" d="M316.3,10.62c0-3.42,2.34-6.33,5.19-6.33a3.17,3.17,0,0,1,2.82,1.38h.08l.39-1.14h1.46L324.33,14h-1.47l.11-1.41h-.08a4.87,4.87,0,0,1-3.38,1.65C317.57,14.27,316.3,13,316.3,10.62Zm6.83.4.83-4a2.57,2.57,0,0,0-2.21-1.27c-2,0-3.6,2.12-3.6,4.57,0,1.65.77,2.41,2,2.41A4.16,4.16,0,0,0,323.13,11Z"/><path class="cls-1" d="M329.52,4.53H331l-.22,1.85h.08A6.18,6.18,0,0,1,335,4.29a2.18,2.18,0,0,1,2.45,2.39,8.85,8.85,0,0,1-.17,1.53L336.08,14h-1.8l1.13-5.62a6.55,6.55,0,0,0,.17-1.24,1.21,1.21,0,0,0-1.37-1.32c-1.15,0-2.37.77-3.56,2.13l-1.21,6h-1.8Z"/><path class="cls-1" d="M339.64,10.62c0-3.42,2.35-6.33,5.19-6.33a3.13,3.13,0,0,1,2.77,1.33h.06l.3-1.84.71-3.54h1.79L347.68,14h-1.47l.11-1.41h-.08a4.9,4.9,0,0,1-3.39,1.65C340.91,14.27,339.64,13,339.64,10.62Zm6.83.4.83-4a2.55,2.55,0,0,0-2.2-1.27c-2,0-3.6,2.12-3.6,4.57,0,1.65.77,2.41,2,2.41A4.14,4.14,0,0,0,346.47,11Z"/><path class="cls-1" d="M365.71,4.51l1.48,0-.37,2.67h.08c1.05-1.64,2.56-2.91,4.17-2.91a3.36,3.36,0,0,1,1.91.47l-.7,1.55a2.84,2.84,0,0,0-1.55-.39c-1.41,0-2.9,1.35-4.14,3.38l-1,4.73h-1.8Z"/><path class="cls-1" d="M374.58,10.08a5.63,5.63,0,0,1,5.49-5.79,3.84,3.84,0,0,1,4,4.19,5.63,5.63,0,0,1-5.47,5.79A3.85,3.85,0,0,1,374.58,10.08Zm7.7-1.51c0-1.72-.89-2.78-2.35-2.78-1.85,0-3.53,1.84-3.53,4.2,0,1.72.88,2.78,2.35,2.78C380.6,12.77,382.28,10.93,382.28,8.57Z"/><path class="cls-1" d="M387.92,12.89h-.05L387.5,14H386L388.77.24h1.8l-.71,3.54-.54,2.07h.07a5.18,5.18,0,0,1,3.32-1.56c2,0,3.24,1.35,3.24,3.76,0,3.45-2.29,6.22-5.2,6.22A3.44,3.44,0,0,1,387.92,12.89Zm6.17-4.59c0-1.71-.8-2.51-2-2.51a4.34,4.34,0,0,0-3,1.75l-.8,4a2.55,2.55,0,0,0,2.23,1.23C392.54,12.77,394.09,10.76,394.09,8.3Z"/><path class="cls-1" d="M398.89,17a4.15,4.15,0,0,0,3.24-3.13l.26-1.38.54,1.1a1.57,1.57,0,0,1-1.1.44,1.25,1.25,0,0,1-1.26-1.35,1.85,1.85,0,0,1,1.87-1.84c.88,0,1.44.69,1.44,1.89,0,2.61-2,4.61-4.75,5.27Z"/><path class="cls-1" d="M421.42,12.52l1-1.13a4.71,4.71,0,0,0,3.53,1.5c1.22,0,2.08-.42,2.08-1.32s-.8-1.15-2.34-1.65c-2-.66-2.88-1.47-2.88-2.83,0-1.87,1.69-2.8,3.68-2.8a5.55,5.55,0,0,1,4,1.55l-1,1.1a4.87,4.87,0,0,0-3.17-1.27c-1.11,0-1.79.45-1.79,1.2s.74,1.14,2.25,1.66c1.76.59,3,1.25,3,2.8,0,2.08-1.81,2.94-4.09,2.94A5.82,5.82,0,0,1,421.42,12.52Z"/><path class="cls-1" d="M434.61,4.53h1.48L436,6H436a5.13,5.13,0,0,1,3.4-1.67c2,0,3.21,1.35,3.21,3.76,0,3.45-2.08,6.22-5.19,6.22A3.45,3.45,0,0,1,434.69,13h-.07l-.33,2-.56,3h-1.8Zm6.18,3.77c0-1.7-.81-2.51-2-2.51a4.27,4.27,0,0,0-2.95,1.75l-.83,4a2.65,2.65,0,0,0,2.3,1.23C439.29,12.77,440.79,10.76,440.79,8.3Z"/><path class="cls-1" d="M444.62,10.08a5.63,5.63,0,0,1,5.49-5.79,3.84,3.84,0,0,1,4,4.19,5.63,5.63,0,0,1-5.47,5.79A3.85,3.85,0,0,1,444.62,10.08Zm7.7-1.51c0-1.72-.88-2.78-2.35-2.78-1.85,0-3.53,1.84-3.53,4.2,0,1.72.89,2.78,2.35,2.78C450.64,12.77,452.32,10.93,452.32,8.57Z"/><path class="cls-1" d="M457.93,4.53h1.48l-.22,1.85h.08a6.18,6.18,0,0,1,4.12-2.09,2.18,2.18,0,0,1,2.45,2.39,8,8,0,0,1-.17,1.53L464.49,14h-1.8l1.13-5.62A5.83,5.83,0,0,0,464,7.17a1.21,1.21,0,0,0-1.37-1.32c-1.15,0-2.37.77-3.56,2.13l-1.21,6h-1.8Z"/><path class="cls-1" d="M468.12,12.52l1-1.13a4.73,4.73,0,0,0,3.54,1.5c1.21,0,2.07-.42,2.07-1.32s-.8-1.15-2.33-1.65c-2-.66-2.89-1.47-2.89-2.83,0-1.87,1.69-2.8,3.68-2.8a5.53,5.53,0,0,1,4,1.55l-1,1.1A4.89,4.89,0,0,0,473,5.67c-1.11,0-1.79.45-1.79,1.2S472,8,473.49,8.53c1.76.59,3,1.25,3,2.8,0,2.08-1.81,2.94-4.09,2.94A5.78,5.78,0,0,1,468.12,12.52Z"/><path class="cls-1" d="M479.64,10.08a5.63,5.63,0,0,1,5.49-5.79,3.84,3.84,0,0,1,4,4.19,5.62,5.62,0,0,1-5.47,5.79A3.85,3.85,0,0,1,479.64,10.08Zm7.7-1.51c0-1.72-.88-2.78-2.35-2.78-1.84,0-3.53,1.84-3.53,4.2,0,1.72.89,2.78,2.35,2.78C485.66,12.77,487.34,10.93,487.34,8.57Z"/><path class="cls-1" d="M494.12,4.51l1.48,0-.37,2.67h.08c1.06-1.64,2.57-2.91,4.17-2.91a3.36,3.36,0,0,1,1.91.47l-.69,1.55a2.9,2.9,0,0,0-1.56-.39c-1.41,0-2.9,1.35-4.14,3.38L494,14h-1.79Z"/><path class="cls-1" d="M503.29,10.13a5.61,5.61,0,0,1,5.45-5.84A3.43,3.43,0,0,1,512.42,8a6.45,6.45,0,0,1-.27,1.78h-7.49l.22-1.31h6.41l-.66.32a3,3,0,0,0,.12-.85,2,2,0,0,0-2.09-2.21c-1.68,0-3.58,1.67-3.58,4.34a2.53,2.53,0,0,0,2.68,2.82,5.2,5.2,0,0,0,3.15-1.17l.64,1.2a6.88,6.88,0,0,1-4.16,1.38A3.78,3.78,0,0,1,503.29,10.13Z"/><path class="cls-1" d="M514.75,10.62c0-3.42,2.35-6.33,5.19-6.33a3.14,3.14,0,0,1,2.77,1.33h0l.31-1.84.7-3.54h1.8L522.78,14h-1.47l.12-1.41h-.08A4.91,4.91,0,0,1,518,14.27C516,14.27,514.75,13,514.75,10.62Zm6.83.4.83-4a2.55,2.55,0,0,0-2.2-1.27c-2,0-3.61,2.12-3.61,4.57,0,1.65.78,2.41,2,2.41A4.14,4.14,0,0,0,521.58,11Z"/><path class="cls-1" d="M539.68,12.89h0L539.26,14h-1.49L540.53.24h1.8l-.71,3.54-.54,2.07h.07a5.18,5.18,0,0,1,3.32-1.56c2,0,3.23,1.35,3.23,3.76,0,3.45-2.28,6.22-5.19,6.22A3.44,3.44,0,0,1,539.68,12.89Zm6.17-4.59c0-1.71-.81-2.51-2-2.51a4.34,4.34,0,0,0-3,1.75l-.8,4a2.55,2.55,0,0,0,2.23,1.23C544.3,12.77,545.85,10.76,545.85,8.3Z"/><path class="cls-1" d="M548,17.64l.54-1.27a2.78,2.78,0,0,0,1.15.28c1.13,0,1.77-.5,2.58-1.78l.51-.82-2.29-9.52h1.74l1.11,5c.18.86.4,2.09.54,2.92h.07c.43-.83,1.09-2.06,1.58-2.92l2.94-5h1.85L554,14.84c-1.3,2.18-2.49,3.18-4.5,3.18A3.17,3.17,0,0,1,548,17.64Z"/><path class="cls-1" d="M574,4.53h1.35l-.11,1.27h.06a3.31,3.31,0,0,1,2.55-1.51c.87,0,1.36.47,1.41,1.6l-.23.2a3.53,3.53,0,0,1,2.84-1.8c.92,0,1.49.55,1.49,1.68a4.32,4.32,0,0,1-.12,1l-1.41,7h-1.74l1.37-6.74a3.8,3.8,0,0,0,.07-.67c0-.57-.22-.79-.6-.79-.62,0-1.15.47-1.77,1.42L577.76,14h-1.62l1.4-6.74a3.8,3.8,0,0,0,.07-.67c0-.57-.25-.79-.62-.79-.65,0-1.17.47-1.83,1.42L573.83,14h-1.74Z"/><path class="cls-1" d="M585.14,10.09a5.71,5.71,0,0,1,5.75-5.8A4.52,4.52,0,0,1,594.49,6l-1.14,1a3.22,3.22,0,0,0-2.66-1.23A4.07,4.07,0,0,0,587,9.9a2.64,2.64,0,0,0,2.85,2.87,4.41,4.41,0,0,0,2.86-1.25l.69,1.23a5.67,5.67,0,0,1-3.8,1.52C587.08,14.27,585.14,12.87,585.14,10.09Z"/><path class="cls-1" d="M596.81,10.09a5.72,5.72,0,0,1,5.75-5.8A4.52,4.52,0,0,1,606.16,6L605,7a3.21,3.21,0,0,0-2.65-1.23,4.08,4.08,0,0,0-3.74,4.11,2.64,2.64,0,0,0,2.85,2.87,4.45,4.45,0,0,0,2.87-1.25l.69,1.23a5.71,5.71,0,0,1-3.8,1.52C598.75,14.27,596.81,12.87,596.81,10.09Z"/><path class="cls-1" d="M607.46,17l.82-1.29a4.51,4.51,0,0,0,2.88,1,3,3,0,0,0,3.24-2.37l.44-1.86h-.08a4.89,4.89,0,0,1-3.26,1.45c-2,0-3.28-1.32-3.28-3.56,0-3.36,2.34-6,5.11-6a3.17,3.17,0,0,1,2.82,1.38h.08l.42-1.14h1.44l-2,9.8c-.55,2.76-2.57,3.82-5,3.82A5.89,5.89,0,0,1,607.46,17ZM615,10.85l.81-3.77a2.62,2.62,0,0,0-2.23-1.29c-1.83,0-3.5,1.92-3.5,4.26,0,1.61.75,2.35,2,2.35A4.17,4.17,0,0,0,615,10.85Z"/><path class="cls-1" d="M622.58,11.61a4.39,4.39,0,0,1,.14-1.08l1.88-8.86h-3l.3-1.43h4.81l-2.19,10.42a3.47,3.47,0,0,0-.1.82,1.19,1.19,0,0,0,1.35,1.29,3.72,3.72,0,0,0,1.79-.49l.41,1.36a6.07,6.07,0,0,1-2.72.63A2.45,2.45,0,0,1,622.58,11.61Z"/><path class="cls-1" d="M631.83,10.09a5.72,5.72,0,0,1,5.75-5.8A4.5,4.5,0,0,1,641.18,6L640,7a3.21,3.21,0,0,0-2.65-1.23,4.07,4.07,0,0,0-3.73,4.11,2.63,2.63,0,0,0,2.84,2.87,4.43,4.43,0,0,0,2.87-1.25l.69,1.23a5.71,5.71,0,0,1-3.8,1.52C633.77,14.27,631.83,12.87,631.83,10.09Z"/><path class="cls-1" d="M645.54,12.81a2,2,0,0,1,1.92-2,1.35,1.35,0,0,1,1.38,1.46,2,2,0,0,1-1.94,2A1.35,1.35,0,0,1,645.54,12.81Z"/><path class="cls-1" d="M1.08,27.88H2.84l0,5.35c0,.91-.06,1.74-.09,2.65h.08c.33-.91.61-1.77,1-2.67l2-4.66H7.38l.15,4.66c0,.93,0,1.76,0,2.67h.07c.35-.91.61-1.73.95-2.65l2.05-5.35H12.3l-3.83,9.5H6.3l-.07-4.51c0-.9,0-1.63,0-2.62H6.2c-.34,1-.53,1.64-.92,2.62L3.42,37.38H1.17Z"/><path class="cls-1" d="M13,33.48a5.59,5.59,0,0,1,5.44-5.84,3.43,3.43,0,0,1,3.68,3.68,6.52,6.52,0,0,1-.27,1.78H14.36l.22-1.32H21l-.66.32a3.34,3.34,0,0,0,.11-.84,2,2,0,0,0-2.09-2.21c-1.67,0-3.58,1.67-3.58,4.34a2.53,2.53,0,0,0,2.69,2.82A5.18,5.18,0,0,0,20.61,35l.65,1.2a7,7,0,0,1-4.17,1.37A3.76,3.76,0,0,1,13,33.48Z"/><path class="cls-1" d="M38.56,23.59h1.8l-1,4.79L39,29.69h.08a5.89,5.89,0,0,1,4-2.05A2.18,2.18,0,0,1,45.59,30a8,8,0,0,1-.18,1.53l-1.17,5.82h-1.8l1.13-5.63a6.46,6.46,0,0,0,.17-1.23,1.21,1.21,0,0,0-1.37-1.32c-1.15,0-2.38.77-3.56,2.13L37.6,37.38H35.8Z"/><path class="cls-1" d="M47.8,34c0-3.43,2.35-6.33,5.19-6.33A3.15,3.15,0,0,1,55.81,29h.08l.4-1.14h1.46l-1.92,9.5H54.37L54.48,36H54.4A4.94,4.94,0,0,1,51,37.61C49.07,37.61,47.8,36.33,47.8,34Zm6.83.4.83-4a2.56,2.56,0,0,0-2.2-1.26c-2,0-3.61,2.12-3.61,4.56,0,1.66.78,2.41,2,2.41A4.13,4.13,0,0,0,54.63,34.37Z"/><path class="cls-1" d="M60.16,27.88h1.78L63,33.17c.17.94.33,1.9.49,2.82h.07c.45-.89,1-1.86,1.55-2.83l3-5.28H70l-5.65,9.5H62.2Z"/><path class="cls-1" d="M71.37,33.48a5.59,5.59,0,0,1,5.44-5.84,3.43,3.43,0,0,1,3.68,3.68,6.52,6.52,0,0,1-.27,1.78H72.73L73,31.78h6.41l-.65.32a3.34,3.34,0,0,0,.11-.84,2,2,0,0,0-2.09-2.21c-1.68,0-3.58,1.67-3.58,4.34a2.53,2.53,0,0,0,2.69,2.82A5.2,5.2,0,0,0,79,35l.65,1.2a7,7,0,0,1-4.17,1.37A3.76,3.76,0,0,1,71.37,33.48Z"/><path class="cls-1" d="M94.84,33.44a5.72,5.72,0,0,1,5.75-5.8,4.52,4.52,0,0,1,3.6,1.71l-1.14,1a3.22,3.22,0,0,0-2.66-1.23,4.07,4.07,0,0,0-3.73,4.1,2.64,2.64,0,0,0,2.85,2.87,4.4,4.4,0,0,0,2.87-1.25l.69,1.24a5.7,5.7,0,0,1-3.81,1.51C96.78,37.61,94.84,36.21,94.84,33.44Z"/><path class="cls-1" d="M108.89,27.86l1.48,0L110,30.55h.07c1.06-1.64,2.57-2.91,4.18-2.91a3.38,3.38,0,0,1,1.91.47l-.7,1.55a2.85,2.85,0,0,0-1.55-.4c-1.41,0-2.9,1.35-4.14,3.39l-1,4.73H107Z"/><path class="cls-1" d="M118.06,33.48a5.6,5.6,0,0,1,5.44-5.84,3.44,3.44,0,0,1,3.69,3.68,6.52,6.52,0,0,1-.27,1.78h-7.49l.22-1.32h6.41l-.66.32a3.34,3.34,0,0,0,.12-.84,2,2,0,0,0-2.09-2.21c-1.68,0-3.59,1.67-3.59,4.34a2.53,2.53,0,0,0,2.69,2.82A5.18,5.18,0,0,0,125.67,35l.65,1.2a6.94,6.94,0,0,1-4.16,1.37A3.77,3.77,0,0,1,118.06,33.48Z"/><path class="cls-1" d="M129.52,34c0-3.43,2.34-6.33,5.19-6.33A3.17,3.17,0,0,1,137.53,29h.08l.39-1.14h1.46l-1.91,9.5h-1.47l.11-1.41h-.08a4.9,4.9,0,0,1-3.38,1.64C130.79,37.61,129.52,36.33,129.52,34Zm6.83.4.83-4A2.58,2.58,0,0,0,135,29.14c-2,0-3.6,2.12-3.6,4.56,0,1.66.78,2.41,2,2.41A4.14,4.14,0,0,0,136.35,34.37Z"/><path class="cls-1" d="M143.27,34.86a5.59,5.59,0,0,1,.15-1.24l.89-4.31h-2.69l.26-1.33,2.8-.1.86-3H147l-.62,3h4.51l-.3,1.43h-4.53l-.9,4.31a4,4,0,0,0-.09.83,1.49,1.49,0,0,0,1.66,1.66,4.8,4.8,0,0,0,2.37-.68l.57,1.29a6.67,6.67,0,0,1-3.44.89C144.18,37.61,143.27,36.51,143.27,34.86Z"/><path class="cls-1" d="M153.08,33.48a5.6,5.6,0,0,1,5.45-5.84,3.43,3.43,0,0,1,3.68,3.68,6.52,6.52,0,0,1-.27,1.78h-7.49l.22-1.32h6.41l-.66.32a2.94,2.94,0,0,0,.12-.84,2,2,0,0,0-2.09-2.21c-1.68,0-3.58,1.67-3.58,4.34a2.52,2.52,0,0,0,2.68,2.82A5.2,5.2,0,0,0,160.7,35l.64,1.2a6.94,6.94,0,0,1-4.16,1.37A3.77,3.77,0,0,1,153.08,33.48Z"/><path class="cls-1" d="M164.54,34c0-3.43,2.35-6.33,5.19-6.33A3.12,3.12,0,0,1,172.5,29h.05l.31-1.85.7-3.53h1.8l-2.79,13.79H171.1l.11-1.41h-.07a4.94,4.94,0,0,1-3.39,1.64C165.81,37.61,164.54,36.33,164.54,34Zm6.83.4.83-4a2.58,2.58,0,0,0-2.2-1.26c-2,0-3.61,2.12-3.61,4.56,0,1.65.78,2.41,2,2.41A4.13,4.13,0,0,0,171.37,34.37Z"/><path class="cls-1" d="M190,34.86a5.63,5.63,0,0,1,.16-1.24l.88-4.31h-2.69l.26-1.33,2.8-.1.86-3h1.49l-.63,3h4.51l-.29,1.43h-4.53l-.9,4.31a3.41,3.41,0,0,0-.09.83,1.49,1.49,0,0,0,1.65,1.66,4.74,4.74,0,0,0,2.37-.68l.57,1.29a6.67,6.67,0,0,1-3.44.89C190.88,37.61,190,36.51,190,34.86Z"/><path class="cls-1" d="M202,23.59h1.8l-1,4.79-.35,1.31h.08a5.89,5.89,0,0,1,4-2.05A2.18,2.18,0,0,1,209,30a8.85,8.85,0,0,1-.17,1.53l-1.18,5.82h-1.8L207,31.75a6.46,6.46,0,0,0,.17-1.23,1.2,1.2,0,0,0-1.37-1.32c-1.15,0-2.37.77-3.56,2.13L201,37.38h-1.8Z"/><path class="cls-1" d="M214.35,35.14a4.9,4.9,0,0,1,.15-1.08l1.1-4.75h-3.39l.3-1.43h5.17l-1.41,6.33a2.41,2.41,0,0,0-.07.58,1.2,1.2,0,0,0,1.36,1.32,4.47,4.47,0,0,0,1.74-.46l.4,1.36a6.18,6.18,0,0,1-2.67.6A2.38,2.38,0,0,1,214.35,35.14Zm1.36-10.32a1.51,1.51,0,0,1,1.5-1.47,1.14,1.14,0,0,1,1.28,1.17A1.49,1.49,0,0,1,217,26,1.15,1.15,0,0,1,215.71,24.82Z"/><path class="cls-1" d="M223,35.87l1-1.14a4.67,4.67,0,0,0,3.53,1.51c1.21,0,2.08-.42,2.08-1.32s-.81-1.15-2.34-1.66c-2-.65-2.89-1.47-2.89-2.82,0-1.88,1.7-2.8,3.68-2.8a5.53,5.53,0,0,1,4,1.55l-1,1.1A4.89,4.89,0,0,0,227.87,29c-1.11,0-1.79.44-1.79,1.2s.75,1.14,2.26,1.66c1.76.58,3,1.25,3,2.8,0,2.08-1.81,2.93-4.1,2.93A5.81,5.81,0,0,1,223,35.87Z"/><path class="cls-1" d="M246.23,27.88H248l-.05,5.35c0,.91-.06,1.74-.09,2.65h.08c.32-.91.61-1.77,1-2.67l2-4.66h1.63l.15,4.66c0,.93,0,1.76,0,2.67h.07c.35-.91.61-1.73.95-2.65l2.05-5.35h1.7l-3.82,9.5h-2.18l-.06-4.51c0-.9,0-1.63,0-2.62h-.08c-.33,1-.52,1.64-.91,2.62l-1.86,4.51h-2.25Z"/><path class="cls-1" d="M258.15,33.48a5.59,5.59,0,0,1,5.44-5.84,3.43,3.43,0,0,1,3.68,3.68A6.52,6.52,0,0,1,267,33.1h-7.49l.22-1.32h6.41l-.65.32a3.34,3.34,0,0,0,.11-.84,2,2,0,0,0-2.09-2.21c-1.68,0-3.58,1.67-3.58,4.34a2.53,2.53,0,0,0,2.69,2.82A5.18,5.18,0,0,0,265.76,35l.65,1.2a7,7,0,0,1-4.17,1.37A3.76,3.76,0,0,1,258.15,33.48Z"/><path class="cls-1" d="M271.19,36.23h-.06l-.36,1.15h-1.49L272,23.59h1.8l-.71,3.53-.54,2.08h.07A5.21,5.21,0,0,1,276,27.64c2,0,3.23,1.35,3.23,3.76,0,3.45-2.29,6.21-5.19,6.21A3.43,3.43,0,0,1,271.19,36.23Zm6.16-4.58c0-1.71-.8-2.51-2-2.51a4.32,4.32,0,0,0-3,1.75l-.81,4a2.53,2.53,0,0,0,2.23,1.23C275.8,36.11,277.35,34.1,277.35,31.65Z"/><path class="cls-1" d="M281.34,35.87l1-1.14a4.67,4.67,0,0,0,3.53,1.51c1.21,0,2.08-.42,2.08-1.32s-.81-1.15-2.34-1.66c-2-.65-2.89-1.47-2.89-2.82,0-1.88,1.69-2.8,3.68-2.8a5.53,5.53,0,0,1,4,1.55l-1,1.1A4.89,4.89,0,0,0,286.24,29c-1.11,0-1.79.44-1.79,1.2s.75,1.14,2.26,1.66c1.76.58,3,1.25,3,2.8,0,2.08-1.8,2.93-4.09,2.93A5.78,5.78,0,0,1,281.34,35.87Z"/><path class="cls-1" d="M296.07,35.14a5.52,5.52,0,0,1,.14-1.08l1.1-4.75h-3.39l.3-1.43h5.18L298,34.21a2.45,2.45,0,0,0-.08.58,1.21,1.21,0,0,0,1.37,1.32,4.43,4.43,0,0,0,1.73-.46l.4,1.36a6.1,6.1,0,0,1-2.66.6A2.38,2.38,0,0,1,296.07,35.14Zm1.36-10.32a1.51,1.51,0,0,1,1.5-1.47,1.13,1.13,0,0,1,1.27,1.17A1.48,1.48,0,0,1,298.69,26,1.15,1.15,0,0,1,297.43,24.82Z"/><path class="cls-1" d="M306.7,34.86a5.63,5.63,0,0,1,.16-1.24l.88-4.31h-2.69l.26-1.33,2.8-.1.86-3h1.48l-.62,3h4.51l-.29,1.43h-4.53l-.9,4.31a3.49,3.49,0,0,0-.1.83,1.49,1.49,0,0,0,1.66,1.66,4.74,4.74,0,0,0,2.37-.68l.57,1.29a6.67,6.67,0,0,1-3.44.89C307.62,37.61,306.7,36.51,306.7,34.86Z"/><path class="cls-1" d="M316.51,33.48A5.6,5.6,0,0,1,322,27.64a3.43,3.43,0,0,1,3.68,3.68,6.52,6.52,0,0,1-.27,1.78h-7.49l.22-1.32h6.41l-.66.32a2.94,2.94,0,0,0,.12-.84,2,2,0,0,0-2.09-2.21c-1.68,0-3.58,1.67-3.58,4.34A2.53,2.53,0,0,0,321,36.21,5.2,5.2,0,0,0,324.13,35l.64,1.2a6.94,6.94,0,0,1-4.16,1.37A3.77,3.77,0,0,1,316.51,33.48Z"/><path class="cls-1" d="M341.08,28l2.72-.1h5.6l-.29,1.43h-8.3ZM344,27c.5-2.53,2-3.66,4.23-3.66a4.43,4.43,0,0,1,2.84,1l-.84,1.15a3,3,0,0,0-1.94-.66,2.39,2.39,0,0,0-2.5,2.23l-2.07,10.34h-1.8Z"/><path class="cls-1" d="M351.23,33.43a5.63,5.63,0,0,1,5.49-5.79,3.84,3.84,0,0,1,4,4.19,5.62,5.62,0,0,1-5.47,5.78A3.84,3.84,0,0,1,351.23,33.43Zm7.7-1.51c0-1.72-.88-2.78-2.35-2.78-1.85,0-3.53,1.84-3.53,4.2,0,1.72.89,2.77,2.35,2.77C357.25,36.11,358.93,34.28,358.93,31.92Z"/><path class="cls-1" d="M365.71,27.86l1.48,0-.37,2.67h.08c1.05-1.64,2.56-2.91,4.17-2.91a3.36,3.36,0,0,1,1.91.47l-.7,1.55a2.85,2.85,0,0,0-1.55-.4c-1.41,0-2.9,1.35-4.14,3.39l-1,4.73h-1.8Z"/><path class="cls-1" d="M384.54,41l.54-1.28a2.64,2.64,0,0,0,1.15.28c1.13,0,1.77-.49,2.58-1.77l.51-.82L387,27.88h1.75l1.11,5c.17.86.39,2.09.53,2.92h.08c.43-.83,1.09-2.06,1.58-2.92l2.94-5h1.85l-6.25,10.31c-1.3,2.18-2.49,3.18-4.5,3.18A3.14,3.14,0,0,1,384.54,41Z"/><path class="cls-1" d="M397.92,33.43a5.64,5.64,0,0,1,5.5-5.79,3.85,3.85,0,0,1,4,4.19A5.62,5.62,0,0,1,402,37.61,3.85,3.85,0,0,1,397.92,33.43Zm7.71-1.51c0-1.72-.89-2.78-2.35-2.78-1.85,0-3.53,1.84-3.53,4.2,0,1.72.88,2.77,2.35,2.77C403.94,36.11,405.63,34.28,405.63,31.92Z"/><path class="cls-1" d="M409.76,35.23a6.6,6.6,0,0,1,.18-1.53l1.17-5.82h1.8l-1.13,5.62a6.36,6.36,0,0,0-.17,1.22A1.22,1.22,0,0,0,413,36.06c1.15,0,2.33-.79,3.52-2.13l1.2-6.05h1.82l-1.89,9.5h-1.49l.22-1.86h-.07a6.13,6.13,0,0,1-4.08,2.09A2.18,2.18,0,0,1,409.76,35.23Z"/><path class="cls-1" d="M424.08,27.86l1.48,0-.37,2.67h.07c1.06-1.64,2.57-2.91,4.18-2.91a3.38,3.38,0,0,1,1.91.47l-.7,1.55a2.85,2.85,0,0,0-1.55-.4c-1.41,0-2.9,1.35-4.14,3.39l-1,4.73h-1.8Z"/><path class="cls-1" d="M444.78,35.23A6.6,6.6,0,0,1,445,33.7l1.17-5.82h1.8L446.8,33.5a6.36,6.36,0,0,0-.17,1.22A1.23,1.23,0,0,0,448,36.06c1.15,0,2.33-.79,3.52-2.13l1.2-6.05h1.82l-1.89,9.5h-1.49l.22-1.86h-.07a6.13,6.13,0,0,1-4.08,2.09A2.18,2.18,0,0,1,444.78,35.23Z"/><path class="cls-1" d="M456.44,35.87l1-1.14A4.69,4.69,0,0,0,461,36.24c1.22,0,2.08-.42,2.08-1.32s-.8-1.15-2.34-1.66c-2-.65-2.88-1.47-2.88-2.82,0-1.88,1.69-2.8,3.68-2.8a5.53,5.53,0,0,1,4,1.55l-1,1.1A4.84,4.84,0,0,0,461.35,29c-1.11,0-1.79.44-1.79,1.2s.74,1.14,2.25,1.66c1.76.58,3,1.25,3,2.8,0,2.08-1.81,2.93-4.09,2.93A5.82,5.82,0,0,1,456.44,35.87Z"/><path class="cls-1" d="M468.27,33.48a5.6,5.6,0,0,1,5.45-5.84,3.43,3.43,0,0,1,3.68,3.68,6.52,6.52,0,0,1-.27,1.78h-7.49l.22-1.32h6.41l-.66.32a2.94,2.94,0,0,0,.12-.84,2,2,0,0,0-2.09-2.21c-1.68,0-3.58,1.67-3.58,4.34a2.53,2.53,0,0,0,2.68,2.82A5.2,5.2,0,0,0,475.89,35l.64,1.2a6.94,6.94,0,0,1-4.16,1.37A3.77,3.77,0,0,1,468.27,33.48Z"/><path class="cls-1" d="M491.31,33.43a5.64,5.64,0,0,1,5.5-5.79,3.85,3.85,0,0,1,4,4.19,5.62,5.62,0,0,1-5.48,5.78A3.85,3.85,0,0,1,491.31,33.43ZM499,31.92c0-1.72-.89-2.78-2.35-2.78-1.85,0-3.53,1.84-3.53,4.2,0,1.72.88,2.77,2.35,2.77C497.33,36.11,499,34.28,499,31.92Z"/><path class="cls-1" d="M504.62,27.88h1.49l-.22,1.85H506a6.18,6.18,0,0,1,4.11-2.09A2.19,2.19,0,0,1,512.54,30a8,8,0,0,1-.18,1.53l-1.17,5.82h-1.8l1.13-5.63a6.46,6.46,0,0,0,.17-1.23,1.21,1.21,0,0,0-1.37-1.32c-1.15,0-2.38.77-3.56,2.13l-1.21,6.05h-1.8Z"/><path class="cls-1" d="M517.51,35a4.37,4.37,0,0,1,.14-1.07L519.53,25h-3l.3-1.43h4.81L519.42,34a3.54,3.54,0,0,0-.1.82,1.19,1.19,0,0,0,1.35,1.29,3.78,3.78,0,0,0,1.78-.48l.42,1.36a6.12,6.12,0,0,1-2.72.62A2.46,2.46,0,0,1,517.51,35Z"/><path class="cls-1" d="M524.62,41l.54-1.28a2.67,2.67,0,0,0,1.15.28c1.13,0,1.77-.49,2.59-1.77l.5-.82-2.29-9.52h1.74l1.12,5c.17.86.39,2.09.53,2.92h.08c.43-.83,1.08-2.06,1.57-2.92l2.94-5H537l-6.26,10.31c-1.29,2.18-2.48,3.18-4.49,3.18A3.18,3.18,0,0,1,524.62,41Z"/><path class="cls-1" d="M540.47,36.15a2,2,0,0,1,1.93-2,1.35,1.35,0,0,1,1.37,1.46,2,2,0,0,1-1.94,2A1.35,1.35,0,0,1,540.47,36.15Z"/><path class="cls-1" d="M3.54,46.93H5.33l-1,4.8L4,53h.08a5.9,5.9,0,0,1,4-2,2.18,2.18,0,0,1,2.45,2.39,7.78,7.78,0,0,1-.17,1.52L9.22,60.73H7.42L8.55,55.1a6.49,6.49,0,0,0,.16-1.24,1.2,1.2,0,0,0-1.36-1.32c-1.15,0-2.38.78-3.56,2.14l-1.21,6H.78Z"/><path class="cls-1" d="M13,56.83A5.59,5.59,0,0,1,18.44,51a3.43,3.43,0,0,1,3.68,3.68,6.37,6.37,0,0,1-.27,1.77H14.36l.22-1.31H21l-.66.32a3.34,3.34,0,0,0,.11-.84,2,2,0,0,0-2.09-2.21c-1.67,0-3.58,1.67-3.58,4.34a2.53,2.53,0,0,0,2.69,2.81,5.18,5.18,0,0,0,3.14-1.17l.65,1.21A7,7,0,0,1,17.09,61,3.77,3.77,0,0,1,13,56.83Z"/><path class="cls-1" d="M27.17,51.2l1.49,0-.38,2.67h.08c1.06-1.64,2.57-2.9,4.17-2.9a3.36,3.36,0,0,1,1.91.47L33.75,53a3,3,0,0,0-1.55-.39c-1.42,0-2.91,1.35-4.15,3.38l-1,4.74H25.3Z"/><path class="cls-1" d="M36.34,56.83A5.6,5.6,0,0,1,41.79,51a3.43,3.43,0,0,1,3.68,3.68,6.37,6.37,0,0,1-.27,1.77H37.71l.22-1.31h6.41l-.66.32a2.94,2.94,0,0,0,.12-.84,2,2,0,0,0-2.09-2.21c-1.68,0-3.58,1.67-3.58,4.34a2.53,2.53,0,0,0,2.69,2.81A5.2,5.2,0,0,0,44,58.38l.65,1.21A7,7,0,0,1,40.44,61,3.77,3.77,0,0,1,36.34,56.83Z"/><path class="cls-1" d="M59.45,51.22h1.76l-.05,5.35c0,.91-.06,1.74-.09,2.66h.08c.32-.92.61-1.77,1-2.67l2-4.66h1.63l.15,4.66c0,.92,0,1.75,0,2.67H66c.35-.92.61-1.73,1-2.66l2-5.35h1.71l-3.83,9.51H64.67l-.07-4.52c0-.89,0-1.62,0-2.61h-.07c-.34,1-.53,1.64-.92,2.62l-1.86,4.51H59.54Z"/><path class="cls-1" d="M71.37,56.83A5.59,5.59,0,0,1,76.81,51a3.43,3.43,0,0,1,3.68,3.68,6.37,6.37,0,0,1-.27,1.77H72.73L73,55.13h6.41l-.65.32a3.34,3.34,0,0,0,.11-.84,2,2,0,0,0-2.09-2.21c-1.68,0-3.58,1.67-3.58,4.34a2.53,2.53,0,0,0,2.69,2.81A5.2,5.2,0,0,0,79,58.38l.65,1.21A7,7,0,0,1,75.46,61,3.77,3.77,0,0,1,71.37,56.83Z"/><path class="cls-1" d="M94.5,57.31c0-3.42,2.34-6.32,5.19-6.32a3.17,3.17,0,0,1,2.82,1.38h.07l.4-1.15h1.46l-1.91,9.51h-1.47l.11-1.41h-.08A4.9,4.9,0,0,1,97.71,61C95.76,61,94.5,59.68,94.5,57.31Zm6.83.41.83-4A2.59,2.59,0,0,0,100,52.49c-2,0-3.6,2.12-3.6,4.56,0,1.66.77,2.41,2,2.41A4.19,4.19,0,0,0,101.33,57.72Z"/><path class="cls-1" d="M106.23,59.22l1-1.14a4.66,4.66,0,0,0,3.53,1.5c1.21,0,2.08-.41,2.08-1.32s-.8-1.14-2.34-1.65c-2-.65-2.88-1.47-2.88-2.83,0-1.87,1.69-2.79,3.68-2.79a5.55,5.55,0,0,1,4,1.55l-1,1.09a4.86,4.86,0,0,0-3.18-1.26c-1.11,0-1.78.44-1.78,1.2s.74,1.14,2.25,1.66c1.76.58,3,1.25,3,2.8,0,2.07-1.81,2.93-4.09,2.93A5.82,5.82,0,0,1,106.23,59.22Z"/><path class="cls-1" d="M120.49,46.93h1.81l-1.82,9h.08l5.72-4.75h2.14l-5,4.34L120,58.29l-.49,2.44h-1.8Zm3.31,7.73,3.1,6.07H125l-2.44-4.86Z"/><path class="cls-1" d="M141.41,56.83A5.6,5.6,0,0,1,146.85,51a3.43,3.43,0,0,1,3.68,3.68,6.37,6.37,0,0,1-.27,1.77h-7.49l.22-1.31h6.42l-.66.32a3.34,3.34,0,0,0,.11-.84,2,2,0,0,0-2.09-2.21c-1.67,0-3.58,1.67-3.58,4.34a2.53,2.53,0,0,0,2.69,2.81A5.18,5.18,0,0,0,149,58.38l.65,1.21A7,7,0,0,1,145.5,61,3.77,3.77,0,0,1,141.41,56.83Z"/><path class="cls-1" d="M153.73,51.22h1.35L155,52.5H155A3.27,3.27,0,0,1,157.58,51c.87,0,1.36.47,1.41,1.6l-.23.19A3.53,3.53,0,0,1,161.6,51c.92,0,1.48.54,1.48,1.67a4.74,4.74,0,0,1-.11,1.05l-1.42,7h-1.73L161.18,54a3,3,0,0,0,.07-.67c0-.57-.21-.79-.59-.79-.62,0-1.15.47-1.78,1.41l-1.37,6.79h-1.62l1.4-6.74a3.8,3.8,0,0,0,.07-.67c0-.57-.25-.79-.62-.79-.65,0-1.17.46-1.84,1.42l-1.32,6.78h-1.74Z"/><path class="cls-1" d="M167.66,58.49a5.43,5.43,0,0,1,.14-1.08l1.1-4.76h-3.39l.3-1.43H171l-1.41,6.34a2,2,0,0,0-.08.57,1.21,1.21,0,0,0,1.37,1.33A4.43,4.43,0,0,0,172.6,59l.4,1.35a6,6,0,0,1-2.66.61A2.38,2.38,0,0,1,167.66,58.49ZM169,48.17a1.5,1.5,0,0,1,1.49-1.47,1.13,1.13,0,0,1,1.28,1.17,1.49,1.49,0,0,1-1.52,1.47A1.14,1.14,0,0,1,169,48.17Z"/><path class="cls-1" d="M179,58.3a4.05,4.05,0,0,1,.14-1.08L181,48.37h-3l.3-1.44h4.81l-2.19,10.42a3.54,3.54,0,0,0-.1.82,1.19,1.19,0,0,0,1.35,1.29,3.78,3.78,0,0,0,1.78-.48l.42,1.36a6.12,6.12,0,0,1-2.72.62A2.45,2.45,0,0,1,179,58.3Z"/><path class="cls-1" d="M186.08,64.34l.54-1.28a2.67,2.67,0,0,0,1.15.28c1.13,0,1.77-.49,2.59-1.77l.5-.82-2.29-9.53h1.75l1.11,5c.17.87.39,2.1.53,2.93H192c.43-.83,1.08-2.06,1.57-2.93l2.94-5h1.86l-6.26,10.32c-1.29,2.18-2.48,3.18-4.49,3.18A3.29,3.29,0,0,1,186.08,64.34Z"/><path class="cls-1" d="M213.31,58.2a5.62,5.62,0,0,1,.16-1.23l.88-4.32h-2.69l.26-1.33,2.8-.1.86-3h1.48l-.62,3H221l-.29,1.43h-4.54L215.23,57a3.43,3.43,0,0,0-.1.83,1.49,1.49,0,0,0,1.66,1.66,4.77,4.77,0,0,0,2.37-.68l.57,1.29a6.67,6.67,0,0,1-3.44.89C214.23,61,213.31,59.86,213.31,58.2Z"/><path class="cls-1" d="M222.82,56.78A5.63,5.63,0,0,1,228.31,51a3.84,3.84,0,0,1,4,4.18A5.63,5.63,0,0,1,226.87,61,3.84,3.84,0,0,1,222.82,56.78Zm7.7-1.51c0-1.72-.88-2.78-2.35-2.78-1.85,0-3.53,1.84-3.53,4.19,0,1.72.89,2.78,2.35,2.78C228.84,59.46,230.52,57.62,230.52,55.27Z"/><path class="cls-1" d="M246.23,51.22H248l-.05,5.35c0,.91-.06,1.74-.09,2.66h.08c.32-.92.61-1.77,1-2.67l2-4.66h1.63l.15,4.66c0,.92,0,1.75,0,2.67h.07c.35-.92.61-1.73.95-2.66l2.05-5.35h1.7l-3.82,9.51h-2.18l-.06-4.52c0-.89,0-1.62,0-2.61h-.08c-.33,1-.52,1.64-.91,2.62l-1.86,4.51h-2.25Z"/><path class="cls-1" d="M260.65,51.2l1.48,0-.38,2.67h.08c1.06-1.64,2.57-2.9,4.18-2.9a3.32,3.32,0,0,1,1.9.47L267.22,53a2.93,2.93,0,0,0-1.55-.39c-1.41,0-2.9,1.35-4.14,3.38l-1,4.74h-1.8Z"/><path class="cls-1" d="M272.72,58.49a4.82,4.82,0,0,1,.15-1.08l1.1-4.76h-3.39l.3-1.43h5.17l-1.41,6.34a2.44,2.44,0,0,0-.08.57,1.21,1.21,0,0,0,1.37,1.33,4.47,4.47,0,0,0,1.74-.46l.4,1.35a6,6,0,0,1-2.67.61A2.38,2.38,0,0,1,272.72,58.49Zm1.36-10.32a1.51,1.51,0,0,1,1.5-1.47,1.14,1.14,0,0,1,1.28,1.17,1.49,1.49,0,0,1-1.52,1.47A1.15,1.15,0,0,1,274.08,48.17Z"/><path class="cls-1" d="M283.35,58.2a5.62,5.62,0,0,1,.16-1.23l.88-4.32H281.7l.26-1.33,2.8-.1.86-3h1.49l-.63,3H291l-.29,1.43h-4.53l-.9,4.32a3.36,3.36,0,0,0-.09.83,1.49,1.49,0,0,0,1.65,1.66,4.74,4.74,0,0,0,2.37-.68l.57,1.29a6.64,6.64,0,0,1-3.44.89C284.27,61,283.35,59.86,283.35,58.2Z"/><path class="cls-1" d="M293.17,56.83A5.59,5.59,0,0,1,298.61,51a3.43,3.43,0,0,1,3.68,3.68,6.37,6.37,0,0,1-.27,1.77h-7.49l.22-1.31h6.42l-.66.32a3.34,3.34,0,0,0,.11-.84,2,2,0,0,0-2.09-2.21c-1.67,0-3.58,1.67-3.58,4.34a2.53,2.53,0,0,0,2.69,2.81,5.18,5.18,0,0,0,3.14-1.17l.65,1.21A7,7,0,0,1,297.26,61,3.77,3.77,0,0,1,293.17,56.83Z"/><path class="cls-1" d="M316.36,59.22l1-1.14a4.66,4.66,0,0,0,3.53,1.5c1.21,0,2.08-.41,2.08-1.32s-.81-1.14-2.34-1.65c-2-.65-2.89-1.47-2.89-2.83,0-1.87,1.69-2.79,3.68-2.79a5.53,5.53,0,0,1,4,1.55l-1,1.09a4.89,4.89,0,0,0-3.18-1.26c-1.11,0-1.79.44-1.79,1.2s.75,1.14,2.26,1.66c1.76.58,3,1.25,3,2.8,0,2.07-1.81,2.93-4.1,2.93A5.78,5.78,0,0,1,316.36,59.22Z"/><path class="cls-1" d="M327.88,56.78A5.63,5.63,0,0,1,333.37,51a3.85,3.85,0,0,1,4,4.18A5.63,5.63,0,0,1,331.93,61,3.85,3.85,0,0,1,327.88,56.78Zm7.7-1.51c0-1.72-.88-2.78-2.35-2.78-1.84,0-3.53,1.84-3.53,4.19,0,1.72.89,2.78,2.35,2.78C333.9,59.46,335.58,57.62,335.58,55.27Z"/><path class="cls-1" d="M340.51,51.22h1.35l-.11,1.28h.06A3.27,3.27,0,0,1,344.36,51c.87,0,1.36.47,1.4,1.6l-.22.19A3.53,3.53,0,0,1,348.38,51c.92,0,1.48.54,1.48,1.67a4.74,4.74,0,0,1-.11,1.05l-1.42,7H346.6L348,54a3,3,0,0,0,.07-.67c0-.57-.21-.79-.59-.79-.62,0-1.15.47-1.78,1.41l-1.37,6.79h-1.62L344.06,54a3,3,0,0,0,.07-.67c0-.57-.24-.79-.61-.79-.65,0-1.18.46-1.84,1.42l-1.32,6.78h-1.74Z"/><path class="cls-1" d="M351.54,56.83A5.59,5.59,0,0,1,357,51a3.43,3.43,0,0,1,3.68,3.68,6.37,6.37,0,0,1-.27,1.77H352.9l.22-1.31h6.41l-.65.32a3.34,3.34,0,0,0,.11-.84,2,2,0,0,0-2.09-2.21c-1.68,0-3.58,1.67-3.58,4.34A2.53,2.53,0,0,0,356,59.55a5.2,5.2,0,0,0,3.14-1.17l.65,1.21A7,7,0,0,1,355.63,61,3.77,3.77,0,0,1,351.54,56.83Z"/><path class="cls-1" d="M365.07,58.2a5.57,5.57,0,0,1,.15-1.23l.89-4.32h-2.69l.26-1.33,2.8-.1.86-3h1.48l-.62,3h4.51l-.29,1.43h-4.54L367,57a3.43,3.43,0,0,0-.1.83,1.49,1.49,0,0,0,1.66,1.66,4.77,4.77,0,0,0,2.37-.68l.57,1.29a6.67,6.67,0,0,1-3.44.89C366,61,365.07,59.86,365.07,58.2Z"/><path class="cls-1" d="M377.09,46.93h1.8l-1,4.8-.35,1.3h.08a5.9,5.9,0,0,1,4-2,2.18,2.18,0,0,1,2.45,2.39A7.78,7.78,0,0,1,384,54.9l-1.17,5.83H381l1.13-5.63a6.49,6.49,0,0,0,.16-1.24,1.2,1.2,0,0,0-1.36-1.32c-1.15,0-2.38.78-3.56,2.14l-1.21,6h-1.8Z"/><path class="cls-1" d="M389.46,58.49a5.43,5.43,0,0,1,.14-1.08l1.1-4.76h-3.39l.3-1.43h5.18l-1.41,6.34a2.44,2.44,0,0,0-.08.57,1.21,1.21,0,0,0,1.37,1.33A4.43,4.43,0,0,0,394.4,59l.4,1.35a6,6,0,0,1-2.66.61A2.38,2.38,0,0,1,389.46,58.49Zm1.36-10.32a1.51,1.51,0,0,1,1.5-1.47,1.13,1.13,0,0,1,1.27,1.17,1.48,1.48,0,0,1-1.51,1.47A1.15,1.15,0,0,1,390.82,48.17Z"/><path class="cls-1" d="M399.56,51.22H401l-.21,1.86h.07A6.18,6.18,0,0,1,405,51a2.18,2.18,0,0,1,2.45,2.39,7.78,7.78,0,0,1-.17,1.52l-1.17,5.83h-1.8l1.12-5.63a5.83,5.83,0,0,0,.17-1.24,1.21,1.21,0,0,0-1.37-1.32c-1.14,0-2.37.78-3.56,2.14l-1.2,6h-1.8Z"/><path class="cls-1" d="M409,63.65l.81-1.29a4.5,4.5,0,0,0,2.88,1A3,3,0,0,0,416,61l.43-1.86h-.07a4.9,4.9,0,0,1-3.26,1.44c-2,0-3.29-1.31-3.29-3.55,0-3.36,2.35-6,5.12-6a3.17,3.17,0,0,1,2.82,1.38h.08l.42-1.15h1.43l-2,9.81c-.55,2.76-2.57,3.81-5,3.81A5.87,5.87,0,0,1,409,63.65Zm7.53-6.1.81-3.78a2.61,2.61,0,0,0-2.23-1.28c-1.83,0-3.5,1.92-3.5,4.25,0,1.62.75,2.35,2,2.35A4.19,4.19,0,0,0,416.54,57.55Z"/><path class="cls-1" d="M433.38,56.78A5.71,5.71,0,0,1,439.13,51a4.49,4.49,0,0,1,3.6,1.71l-1.14,1a3.22,3.22,0,0,0-2.66-1.23,4.06,4.06,0,0,0-3.73,4.1,2.64,2.64,0,0,0,2.85,2.87,4.4,4.4,0,0,0,2.87-1.25l.69,1.23A5.71,5.71,0,0,1,437.8,61C435.32,61,433.38,59.56,433.38,56.78Z"/><path class="cls-1" d="M444.62,56.78A5.63,5.63,0,0,1,450.11,51a3.84,3.84,0,0,1,4,4.18A5.63,5.63,0,0,1,448.67,61,3.84,3.84,0,0,1,444.62,56.78Zm7.7-1.51c0-1.72-.88-2.78-2.35-2.78-1.85,0-3.53,1.84-3.53,4.19,0,1.72.89,2.78,2.35,2.78C450.64,59.46,452.32,57.62,452.32,55.27Z"/><path class="cls-1" d="M457.93,51.22h1.48l-.22,1.86h.08A6.18,6.18,0,0,1,463.39,51a2.18,2.18,0,0,1,2.45,2.39,7.78,7.78,0,0,1-.17,1.52l-1.18,5.83h-1.8l1.13-5.63a5.83,5.83,0,0,0,.17-1.24,1.21,1.21,0,0,0-1.37-1.32c-1.15,0-2.37.78-3.56,2.14l-1.21,6h-1.8Z"/><path class="cls-1" d="M468.4,56.78A5.71,5.71,0,0,1,474.15,51a4.49,4.49,0,0,1,3.6,1.71l-1.14,1A3.22,3.22,0,0,0,474,52.49a4.06,4.06,0,0,0-3.73,4.1,2.64,2.64,0,0,0,2.85,2.87,4.4,4.4,0,0,0,2.87-1.25l.69,1.23A5.71,5.71,0,0,1,472.82,61C470.34,61,468.4,59.56,468.4,56.78Z"/><path class="cls-1" d="M480,56.83A5.59,5.59,0,0,1,485.39,51a3.43,3.43,0,0,1,3.68,3.68,6.37,6.37,0,0,1-.27,1.77h-7.49l.22-1.31h6.41l-.65.32a3.34,3.34,0,0,0,.11-.84,2,2,0,0,0-2.09-2.21c-1.67,0-3.58,1.67-3.58,4.34a2.53,2.53,0,0,0,2.69,2.81,5.18,5.18,0,0,0,3.14-1.17l.65,1.21A7,7,0,0,1,484,61,3.77,3.77,0,0,1,480,56.83Z"/><path class="cls-1" d="M493,51.22h1.49l-.14,1.44h.07A5.13,5.13,0,0,1,497.8,51c2,0,3.21,1.34,3.21,3.76,0,3.45-2.08,6.21-5.19,6.21a3.47,3.47,0,0,1-2.76-1.3H493l-.33,2-.56,3h-1.8ZM499.16,55c0-1.7-.81-2.5-2-2.5a4.27,4.27,0,0,0-2.95,1.75l-.83,4a2.65,2.65,0,0,0,2.3,1.23C497.66,59.46,499.16,57.45,499.16,55Z"/><path class="cls-1" d="M505.15,58.2a5.62,5.62,0,0,1,.16-1.23l.88-4.32H503.5l.26-1.33,2.8-.1.86-3h1.49l-.62,3h4.5l-.29,1.43H508l-.9,4.32a3.36,3.36,0,0,0-.09.83,1.49,1.49,0,0,0,1.65,1.66,4.74,4.74,0,0,0,2.37-.68l.57,1.29a6.64,6.64,0,0,1-3.44.89C506.07,61,505.15,59.86,505.15,58.2Z"/><path class="cls-1" d="M514.83,58.58a7.1,7.1,0,0,1,.17-1.53l1.17-5.83H518l-1.13,5.63a6.36,6.36,0,0,0-.17,1.22A1.23,1.23,0,0,0,518,59.41c1.15,0,2.33-.79,3.52-2.14l1.21-6.05h1.81l-1.89,9.51h-1.48l.22-1.86h-.08A6.13,6.13,0,0,1,517.28,61,2.18,2.18,0,0,1,514.83,58.58Z"/><path class="cls-1" d="M526.42,57.31c0-3.42,2.35-6.32,5.19-6.32a3.18,3.18,0,0,1,2.83,1.38h.07l.4-1.15h1.46l-1.91,9.51H533l.11-1.41H533A4.92,4.92,0,0,1,529.63,61C527.69,61,526.42,59.68,526.42,57.31Zm6.83.41.84-4a2.59,2.59,0,0,0-2.21-1.26c-2,0-3.6,2.12-3.6,4.56,0,1.66.77,2.41,2,2.41A4.16,4.16,0,0,0,533.25,57.72Z"/><path class="cls-1" d="M540.86,58.3a4.51,4.51,0,0,1,.14-1.08l1.88-8.85h-3l.3-1.44H545l-2.2,10.42a4.2,4.2,0,0,0-.09.82A1.18,1.18,0,0,0,544,59.46,3.82,3.82,0,0,0,545.8,59l.42,1.36a6.12,6.12,0,0,1-2.72.62A2.46,2.46,0,0,1,540.86,58.3Z"/><path class="cls-1" d="M552.54,58.3a4.45,4.45,0,0,1,.13-1.08l1.88-8.85h-3l.3-1.44h4.81l-2.19,10.42a3.54,3.54,0,0,0-.1.82,1.19,1.19,0,0,0,1.35,1.29,3.78,3.78,0,0,0,1.78-.48l.42,1.36a6.12,6.12,0,0,1-2.72.62A2.45,2.45,0,0,1,552.54,58.3Z"/><path class="cls-1" d="M559.64,64.34l.54-1.28a2.67,2.67,0,0,0,1.15.28c1.13,0,1.77-.49,2.59-1.77l.5-.82-2.29-9.53h1.75l1.11,5c.17.87.39,2.1.53,2.93h.08c.43-.83,1.08-2.06,1.57-2.93l2.94-5H572l-6.26,10.32c-1.29,2.18-2.48,3.18-4.49,3.18A3.29,3.29,0,0,1,559.64,64.34Z"/><path class="cls-1" d="M585.14,56.78A5.71,5.71,0,0,1,590.89,51a4.49,4.49,0,0,1,3.6,1.71l-1.14,1a3.22,3.22,0,0,0-2.66-1.23,4.06,4.06,0,0,0-3.73,4.1,2.64,2.64,0,0,0,2.85,2.87,4.36,4.36,0,0,0,2.86-1.25l.69,1.23a5.67,5.67,0,0,1-3.8,1.52C587.08,61,585.14,59.56,585.14,56.78Z"/><path class="cls-1" d="M596.38,56.78A5.63,5.63,0,0,1,601.87,51a3.84,3.84,0,0,1,4,4.18A5.63,5.63,0,0,1,600.43,61,3.84,3.84,0,0,1,596.38,56.78Zm7.7-1.51c0-1.72-.88-2.78-2.35-2.78-1.85,0-3.53,1.84-3.53,4.19,0,1.72.88,2.78,2.35,2.78C602.4,59.46,604.08,57.62,604.08,55.27Z"/><path class="cls-1" d="M608.05,56.78A5.63,5.63,0,0,1,613.54,51a3.85,3.85,0,0,1,4,4.18A5.63,5.63,0,0,1,612.1,61,3.85,3.85,0,0,1,608.05,56.78Zm7.7-1.51c0-1.72-.88-2.78-2.35-2.78-1.84,0-3.53,1.84-3.53,4.19,0,1.72.89,2.78,2.35,2.78C614.07,59.46,615.75,57.62,615.75,55.27Z"/><path class="cls-1" d="M622.58,58.3a4.51,4.51,0,0,1,.14-1.08l1.88-8.85h-3l.3-1.44h4.81l-2.19,10.42a3.54,3.54,0,0,0-.1.82,1.19,1.19,0,0,0,1.35,1.29,3.82,3.82,0,0,0,1.79-.48l.41,1.36a6.06,6.06,0,0,1-2.72.62A2.45,2.45,0,0,1,622.58,58.3Z"/><path class="cls-1" d="M633.86,59.5a2,2,0,0,1,1.93-2A1.35,1.35,0,0,1,637.16,59a2,2,0,0,1-1.94,2A1.35,1.35,0,0,1,633.86,59.5Z"/><path class="cls-1" d="M2.68,97.92H4.16L4,99.35H4.1a5.13,5.13,0,0,1,3.4-1.66c2,0,3.21,1.34,3.21,3.75,0,3.46-2.08,6.22-5.19,6.22a3.45,3.45,0,0,1-2.76-1.31H2.69l-.33,2-.56,3H0Zm6.18,3.77c0-1.7-.81-2.5-2-2.5a4.25,4.25,0,0,0-2.95,1.74l-.82,4a2.63,2.63,0,0,0,2.3,1.23C7.36,106.16,8.86,104.15,8.86,101.69Z"/><path class="cls-1" d="M15.54,105a4.39,4.39,0,0,1,.14-1.08l1.88-8.86h-3l.3-1.43h4.81l-2.2,10.42a4.12,4.12,0,0,0-.09.82,1.19,1.19,0,0,0,1.35,1.29,3.69,3.69,0,0,0,1.78-.49L20.9,107a6.12,6.12,0,0,1-2.72.62A2.46,2.46,0,0,1,15.54,105Z"/><path class="cls-1" d="M24.67,103.52a5.6,5.6,0,0,1,5.44-5.83,3.43,3.43,0,0,1,3.69,3.67,6.45,6.45,0,0,1-.27,1.78H26l.22-1.31h6.41l-.66.32a3.35,3.35,0,0,0,.12-.85A2,2,0,0,0,30,99.09c-1.68,0-3.59,1.67-3.59,4.35a2.53,2.53,0,0,0,2.69,2.81,5.15,5.15,0,0,0,3.14-1.17l.65,1.21a6.94,6.94,0,0,1-4.16,1.37A3.78,3.78,0,0,1,24.67,103.52Z"/><path class="cls-1" d="M36.13,104c0-3.42,2.34-6.32,5.19-6.32a3.15,3.15,0,0,1,2.82,1.38h.08l.39-1.15h1.46l-1.91,9.5H42.69L42.8,106h-.08a4.87,4.87,0,0,1-3.38,1.65C37.4,107.66,36.13,106.38,36.13,104Zm6.83.41.83-4a2.58,2.58,0,0,0-2.21-1.26c-2,0-3.6,2.12-3.6,4.56,0,1.65.78,2.41,2,2.41A4.18,4.18,0,0,0,43,104.42Z"/><path class="cls-1" d="M47.86,105.92l1-1.14a4.71,4.71,0,0,0,3.53,1.5c1.22,0,2.08-.42,2.08-1.32s-.8-1.14-2.34-1.65c-2-.66-2.88-1.47-2.88-2.83,0-1.87,1.69-2.79,3.68-2.79a5.52,5.52,0,0,1,4,1.54l-1,1.1a4.84,4.84,0,0,0-3.17-1.27c-1.11,0-1.79.45-1.79,1.2s.74,1.14,2.25,1.66c1.76.59,3,1.25,3,2.8,0,2.08-1.81,2.94-4.09,2.94A5.86,5.86,0,0,1,47.86,105.92Z"/><path class="cls-1" d="M59.69,103.52a5.6,5.6,0,0,1,5.45-5.83,3.43,3.43,0,0,1,3.68,3.67,6.45,6.45,0,0,1-.27,1.78H61.06l.22-1.31h6.41l-.66.32a3,3,0,0,0,.12-.85,2,2,0,0,0-2.09-2.21c-1.68,0-3.58,1.67-3.58,4.35a2.52,2.52,0,0,0,2.68,2.81,5.2,5.2,0,0,0,3.15-1.17l.64,1.21a6.94,6.94,0,0,1-4.16,1.37A3.78,3.78,0,0,1,59.69,103.52Z"/><path class="cls-1" d="M82.82,104c0-3.42,2.35-6.32,5.19-6.32A3.12,3.12,0,0,1,90.78,99h0l.31-1.84.7-3.54h1.8l-2.78,13.79H89.39L89.5,106h-.08A4.9,4.9,0,0,1,86,107.66C84.09,107.66,82.82,106.38,82.82,104Zm6.83.41.83-4a2.56,2.56,0,0,0-2.2-1.26c-2,0-3.61,2.12-3.61,4.56,0,1.65.78,2.41,2,2.41A4.16,4.16,0,0,0,89.65,104.42Z"/><path class="cls-1" d="M94.41,103.47a5.62,5.62,0,0,1,5.49-5.78,3.84,3.84,0,0,1,4,4.18,5.63,5.63,0,0,1-5.47,5.79A3.85,3.85,0,0,1,94.41,103.47Zm7.7-1.51c0-1.72-.89-2.77-2.35-2.77-1.85,0-3.53,1.83-3.53,4.19,0,1.72.88,2.78,2.35,2.78C100.43,106.16,102.11,104.32,102.11,102Z"/><path class="cls-1" d="M107.72,97.92h1.48L109,99.78h.08a6.14,6.14,0,0,1,4.12-2.09,2.17,2.17,0,0,1,2.45,2.38,8.85,8.85,0,0,1-.17,1.53l-1.18,5.82h-1.8l1.13-5.62a6.55,6.55,0,0,0,.17-1.24,1.21,1.21,0,0,0-1.37-1.32c-1.15,0-2.37.77-3.56,2.13l-1.21,6h-1.8Z"/><path class="cls-1" d="M119.92,104.9a5.78,5.78,0,0,1,.16-1.24l.88-4.31h-2.69l.26-1.33,2.8-.1.86-3h1.48l-.62,3h4.51l-.29,1.43h-4.53l-.9,4.32a3.41,3.41,0,0,0-.1.82,1.5,1.5,0,0,0,1.66,1.67,4.75,4.75,0,0,0,2.37-.69l.57,1.29a6.57,6.57,0,0,1-3.44.9C120.84,107.66,119.92,106.55,119.92,104.9Z"/><path class="cls-1" d="M142.63,98l2.72-.1H151l-.29,1.43h-8.31Zm2.88-1c.5-2.53,2-3.65,4.23-3.65a4.42,4.42,0,0,1,2.83,1l-.84,1.16a3,3,0,0,0-1.93-.67,2.39,2.39,0,0,0-2.5,2.23l-2.07,10.34h-1.8Z"/><path class="cls-1" d="M152.78,103.47a5.62,5.62,0,0,1,5.49-5.78,3.84,3.84,0,0,1,4,4.18,5.63,5.63,0,0,1-5.47,5.79A3.85,3.85,0,0,1,152.78,103.47Zm7.7-1.51c0-1.72-.89-2.77-2.35-2.77-1.85,0-3.53,1.83-3.53,4.19,0,1.72.88,2.78,2.35,2.78C158.79,106.16,160.48,104.32,160.48,102Z"/><path class="cls-1" d="M167.26,97.9l1.48,0-.38,2.67h.08c1.06-1.64,2.57-2.9,4.18-2.9a3.41,3.41,0,0,1,1.9.46l-.69,1.55a2.84,2.84,0,0,0-1.55-.39c-1.41,0-2.9,1.35-4.14,3.38l-1,4.73h-1.8Z"/><path class="cls-1" d="M175.53,110.35l.82-1.29a4.51,4.51,0,0,0,2.88,1,3,3,0,0,0,3.24-2.36l.44-1.87h-.08a4.84,4.84,0,0,1-3.26,1.45c-2,0-3.28-1.31-3.28-3.56,0-3.36,2.35-6,5.11-6a3.12,3.12,0,0,1,2.82,1.38h.08l.42-1.15h1.44l-2,9.8c-.55,2.76-2.57,3.82-5,3.82A5.9,5.9,0,0,1,175.53,110.35Zm7.54-6.1.8-3.78a2.61,2.61,0,0,0-2.23-1.28c-1.83,0-3.5,1.92-3.5,4.25,0,1.61.75,2.35,2,2.35A4.19,4.19,0,0,0,183.07,104.25Z"/><path class="cls-1" d="M188.1,103.52a5.6,5.6,0,0,1,5.45-5.83,3.43,3.43,0,0,1,3.68,3.67,6.45,6.45,0,0,1-.27,1.78h-7.49l.22-1.31h6.41l-.66.32a3,3,0,0,0,.12-.85,2,2,0,0,0-2.09-2.21c-1.68,0-3.58,1.67-3.58,4.35a2.52,2.52,0,0,0,2.68,2.81,5.2,5.2,0,0,0,3.15-1.17l.64,1.21a6.94,6.94,0,0,1-4.16,1.37A3.78,3.78,0,0,1,188.1,103.52Z"/><path class="cls-1" d="M201.64,104.9a5.73,5.73,0,0,1,.15-1.24l.88-4.31H200l.26-1.33,2.79-.1.87-3h1.48l-.62,3h4.51l-.3,1.43h-4.53l-.9,4.32a3.33,3.33,0,0,0-.09.82,1.5,1.5,0,0,0,1.66,1.67,4.81,4.81,0,0,0,2.37-.69l.57,1.29a6.6,6.6,0,0,1-3.44.9C202.55,107.66,201.64,106.55,201.64,104.9Z"/><path class="cls-1" d="M225,104.9a5.78,5.78,0,0,1,.16-1.24l.88-4.31h-2.69l.26-1.33,2.8-.1.86-3h1.49l-.62,3h4.5l-.29,1.43H227.8l-.9,4.32a3.33,3.33,0,0,0-.09.82,1.49,1.49,0,0,0,1.65,1.67,4.75,4.75,0,0,0,2.37-.69l.57,1.29a6.54,6.54,0,0,1-3.44.9C225.9,107.66,225,106.55,225,104.9Z"/><path class="cls-1" d="M234.49,103.47A5.62,5.62,0,0,1,240,97.69a3.84,3.84,0,0,1,4,4.18,5.63,5.63,0,0,1-5.48,5.79A3.85,3.85,0,0,1,234.49,103.47Zm7.7-1.51c0-1.72-.88-2.77-2.35-2.77-1.84,0-3.53,1.83-3.53,4.19,0,1.72.89,2.78,2.35,2.78C240.51,106.16,242.19,104.32,242.19,102Z"/><path class="cls-1" d="M260,104.9a5.73,5.73,0,0,1,.15-1.24l.88-4.31h-2.68l.26-1.33,2.79-.1.86-3h1.49l-.62,3h4.5l-.29,1.43h-4.53l-.9,4.32a3.33,3.33,0,0,0-.09.82,1.49,1.49,0,0,0,1.65,1.67,4.81,4.81,0,0,0,2.38-.69l.57,1.29a6.6,6.6,0,0,1-3.44.9C260.92,107.66,260,106.55,260,104.9Z"/><path class="cls-1" d="M272.32,97.9l1.48,0-.37,2.67h.08c1.05-1.64,2.57-2.9,4.17-2.9a3.45,3.45,0,0,1,1.91.46l-.7,1.55a2.84,2.84,0,0,0-1.55-.39c-1.41,0-2.9,1.35-4.14,3.38l-1,4.73h-1.8Z"/><path class="cls-1" d="M279.47,111l.54-1.28a2.82,2.82,0,0,0,1.15.28c1.13,0,1.77-.5,2.59-1.77l.5-.83L282,97.92h1.75l1.11,5c.17.86.39,2.09.53,2.92h.08c.43-.83,1.08-2.06,1.57-2.92l2.94-5h1.86l-6.26,10.31c-1.29,2.18-2.48,3.19-4.49,3.19A3.29,3.29,0,0,1,279.47,111Z"/><path class="cls-1" d="M304.54,103.47A5.62,5.62,0,0,1,310,97.69a3.84,3.84,0,0,1,4,4.18,5.63,5.63,0,0,1-5.48,5.79A3.85,3.85,0,0,1,304.54,103.47Zm7.7-1.51c0-1.72-.89-2.77-2.35-2.77-1.85,0-3.53,1.83-3.53,4.19,0,1.72.88,2.78,2.35,2.78C310.55,106.16,312.24,104.32,312.24,102Z"/><path class="cls-1" d="M316.37,105.27a7.25,7.25,0,0,1,.17-1.53l1.18-5.82h1.8l-1.13,5.62a6.47,6.47,0,0,0-.17,1.22,1.22,1.22,0,0,0,1.37,1.34c1.15,0,2.33-.79,3.52-2.13l1.2-6h1.82l-1.89,9.5h-1.49l.22-1.85h-.08a6.09,6.09,0,0,1-4.07,2.09A2.18,2.18,0,0,1,316.37,105.27Z"/><path class="cls-1" d="M330.69,97.9l1.48,0-.37,2.67h.07c1.06-1.64,2.57-2.9,4.18-2.9a3.47,3.47,0,0,1,1.91.46l-.7,1.55a2.84,2.84,0,0,0-1.55-.39c-1.41,0-2.9,1.35-4.14,3.38l-1,4.73h-1.8Z"/><path class="cls-1" d="M354.43,105.18a5.58,5.58,0,0,1,.15-1.08l1.1-4.75h-3.39l.3-1.43h5.18l-1.41,6.33a2.12,2.12,0,0,0-.08.58,1.21,1.21,0,0,0,1.37,1.33,4.43,4.43,0,0,0,1.73-.46l.4,1.35a6,6,0,0,1-2.66.61A2.39,2.39,0,0,1,354.43,105.18Zm1.37-10.32a1.51,1.51,0,0,1,1.49-1.47,1.14,1.14,0,0,1,1.28,1.17A1.49,1.49,0,0,1,357.05,96,1.15,1.15,0,0,1,355.8,94.86Z"/><path class="cls-1" d="M364.54,97.92H366l-.22,1.86h.08A6.14,6.14,0,0,1,370,97.69a2.17,2.17,0,0,1,2.45,2.38,8,8,0,0,1-.17,1.53l-1.18,5.82h-1.8l1.13-5.62a5.83,5.83,0,0,0,.17-1.24,1.21,1.21,0,0,0-1.37-1.32c-1.15,0-2.37.77-3.56,2.13l-1.21,6h-1.79Z"/><path class="cls-1" d="M374.73,105.92l1-1.14a4.73,4.73,0,0,0,3.54,1.5c1.21,0,2.08-.42,2.08-1.32s-.81-1.14-2.34-1.65c-2-.66-2.89-1.47-2.89-2.83,0-1.87,1.69-2.79,3.68-2.79a5.52,5.52,0,0,1,4,1.54l-1,1.1a4.89,4.89,0,0,0-3.18-1.27c-1.11,0-1.79.45-1.79,1.2s.75,1.14,2.26,1.66c1.76.59,3,1.25,3,2.8,0,2.08-1.81,2.94-4.09,2.94A5.81,5.81,0,0,1,374.73,105.92Z"/><path class="cls-1" d="M388.42,104.9a5.73,5.73,0,0,1,.15-1.24l.89-4.31h-2.69L387,98l2.79-.1.87-3h1.48l-.62,3h4.51l-.3,1.43h-4.53l-.9,4.32a3.33,3.33,0,0,0-.09.82,1.5,1.5,0,0,0,1.66,1.67,4.81,4.81,0,0,0,2.37-.69l.57,1.29a6.6,6.6,0,0,1-3.44.9C389.33,107.66,388.42,106.55,388.42,104.9Z"/><path class="cls-1" d="M398,104c0-3.42,2.35-6.32,5.19-6.32A3.12,3.12,0,0,1,406,99.07h.08l.4-1.15H408l-1.91,9.5h-1.47l.11-1.41h-.08a4.9,4.9,0,0,1-3.39,1.65C399.28,107.66,398,106.38,398,104Zm6.83.41.84-4a2.59,2.59,0,0,0-2.21-1.26c-2,0-3.6,2.12-3.6,4.56,0,1.65.77,2.41,2,2.41A4.16,4.16,0,0,0,404.84,104.42Z"/><path class="cls-1" d="M409,110.35l.81-1.29a4.55,4.55,0,0,0,2.88,1,3,3,0,0,0,3.25-2.36l.43-1.87h-.07a4.86,4.86,0,0,1-3.26,1.45c-2,0-3.29-1.31-3.29-3.56,0-3.36,2.35-6,5.12-6a3.15,3.15,0,0,1,2.82,1.38h.08l.42-1.15h1.43l-2,9.8c-.55,2.76-2.57,3.82-5,3.82A5.87,5.87,0,0,1,409,110.35Zm7.53-6.1.81-3.78a2.61,2.61,0,0,0-2.23-1.28c-1.83,0-3.5,1.92-3.5,4.25,0,1.61.75,2.35,2,2.35A4.19,4.19,0,0,0,416.54,104.25Z"/><path class="cls-1" d="M424.08,97.9l1.48,0-.37,2.67h.07c1.06-1.64,2.57-2.9,4.18-2.9a3.47,3.47,0,0,1,1.91.46l-.7,1.55a2.84,2.84,0,0,0-1.55-.39c-1.41,0-2.9,1.35-4.14,3.38l-1,4.73h-1.8Z"/><path class="cls-1" d="M433,104c0-3.42,2.35-6.32,5.19-6.32a3.15,3.15,0,0,1,2.83,1.38h.07l.4-1.15H443l-1.91,9.5H439.6l.11-1.41h-.08a4.89,4.89,0,0,1-3.38,1.65C434.3,107.66,433,106.38,433,104Zm6.84.41.83-4a2.59,2.59,0,0,0-2.21-1.26c-2,0-3.6,2.12-3.6,4.56,0,1.65.77,2.41,2,2.41A4.19,4.19,0,0,0,439.87,104.42Z"/><path class="cls-1" d="M445.57,97.92h1.35l-.11,1.28h.06a3.27,3.27,0,0,1,2.55-1.51c.87,0,1.36.47,1.41,1.59l-.23.2a3.52,3.52,0,0,1,2.84-1.79c.92,0,1.49.54,1.49,1.67a4.89,4.89,0,0,1-.12,1l-1.41,7h-1.74l1.36-6.74a3,3,0,0,0,.07-.66c0-.58-.21-.8-.59-.8-.62,0-1.15.47-1.77,1.42l-1.38,6.78h-1.62l1.4-6.74a3.7,3.7,0,0,0,.07-.66c0-.58-.25-.8-.62-.8-.65,0-1.17.47-1.83,1.42l-1.33,6.78h-1.74Z"/><path class="cls-1" d="M469.49,98l2.72-.1h5.6l-.29,1.43h-8.3Zm2.88-1c.51-2.53,2-3.65,4.23-3.65a4.43,4.43,0,0,1,2.84,1l-.84,1.16a3,3,0,0,0-1.94-.67,2.39,2.39,0,0,0-2.5,2.23l-2.07,10.34h-1.8Z"/><path class="cls-1" d="M482.85,105.18a5.52,5.52,0,0,1,.14-1.08l1.1-4.75H480.7l.3-1.43h5.18l-1.41,6.33a2.12,2.12,0,0,0-.08.58,1.21,1.21,0,0,0,1.37,1.33,4.43,4.43,0,0,0,1.73-.46l.4,1.35a6,6,0,0,1-2.66.61A2.38,2.38,0,0,1,482.85,105.18Zm1.36-10.32a1.51,1.51,0,0,1,1.5-1.47A1.14,1.14,0,0,1,487,94.56,1.49,1.49,0,0,1,485.46,96,1.15,1.15,0,0,1,484.21,94.86Z"/><path class="cls-1" d="M494.17,105a4.39,4.39,0,0,1,.14-1.08l1.88-8.86h-3l.3-1.43h4.81l-2.19,10.42a3.47,3.47,0,0,0-.1.82,1.19,1.19,0,0,0,1.35,1.29,3.69,3.69,0,0,0,1.78-.49l.42,1.37a6.12,6.12,0,0,1-2.72.62A2.45,2.45,0,0,1,494.17,105Z"/><path class="cls-1" d="M505.15,104.9a5.78,5.78,0,0,1,.16-1.24l.88-4.31H503.5l.26-1.33,2.8-.1.86-3h1.49l-.62,3h4.5l-.29,1.43H508l-.9,4.32a3.33,3.33,0,0,0-.09.82,1.49,1.49,0,0,0,1.65,1.67,4.75,4.75,0,0,0,2.37-.69l.57,1.29a6.54,6.54,0,0,1-3.44.9C506.07,107.66,505.15,106.55,505.15,104.9Z"/><path class="cls-1" d="M515,103.52a5.6,5.6,0,0,1,5.44-5.83,3.43,3.43,0,0,1,3.68,3.67,6.45,6.45,0,0,1-.27,1.78h-7.49l.22-1.31H523l-.66.32a3.35,3.35,0,0,0,.11-.85,2,2,0,0,0-2.09-2.21c-1.67,0-3.58,1.67-3.58,4.35a2.53,2.53,0,0,0,2.69,2.81,5.18,5.18,0,0,0,3.14-1.17l.65,1.21a7,7,0,0,1-4.17,1.37A3.77,3.77,0,0,1,515,103.52Z"/><path class="cls-1" d="M529.14,97.9l1.49,0-.38,2.67h.08c1.06-1.64,2.57-2.9,4.17-2.9a3.45,3.45,0,0,1,1.91.46l-.69,1.55a2.89,2.89,0,0,0-1.55-.39c-1.42,0-2.9,1.35-4.14,3.38l-1,4.73h-1.8Z"/><path class="cls-1" d="M540.47,106.2a2,2,0,0,1,1.93-2,1.35,1.35,0,0,1,1.37,1.46,2,2,0,0,1-1.94,2A1.35,1.35,0,0,1,540.47,106.2Z"/></svg>